<svg xmlns="http://www.w3.org/2000/svg" viewBox="0 0 460.55 128.44" enable-background="new 0 0 460.55 128.44"><g><path fill="#727171" stroke="#727171" stroke-width="10" stroke-linecap="round" stroke-miterlimit="10" d="M19.343 45.688h63"/><path stroke="#727171" stroke-width="10" stroke-linecap="round" stroke-miterlimit="10" fill="none" d="M50.468 24.688v87.831"/><circle fill="#fff" stroke="#727171" stroke-width="7" stroke-linecap="round" stroke-miterlimit="10" cx="50.468" cy="18.188" r="10"/><path stroke="#727171" stroke-width="10" stroke-linecap="round" stroke-miterlimit="10" d="M7.933 93.188c11.871 8.165 26.591 13 42.535 13s30.664-4.835 42.535-13" fill="none"/><g stroke="#727171" stroke-width="10" stroke-linecap="round" stroke-miterlimit="10" fill="none"><path d="M50.843 116.894l-10.75-10.75M50.093 116.894l10.75-10.75"/></g><g fill="#727171"><path d="M134.3 12.15c0-.961.64-1.602 1.601-1.602h1.761c.961 0 1.602.641 1.602 1.602v105.683c0 .961-.641 1.602-1.602 1.602h-1.761c-.961 0-1.601-.641-1.601-1.602v-105.683zM233.574 119.434c-1.121 0-1.602-.32-2.401-1.602l-26.421-43.074-18.735 22.417v20.656c0 .961-.641 1.602-1.601 1.602h-1.602c-.961 0-1.601-.641-1.601-1.602v-105.681c0-.961.64-1.602 1.601-1.602h1.602c.96 0 1.601.641 1.601 1.602v78.142l37.95-45.316c.961-1.121 1.441-1.441 2.562-1.441h2.401c.961 0 1.441.8.801 1.601l-21.777 25.94 28.663 46.756c.479.801 0 1.602-.961 1.602h-2.082zM322.121 119.434c-.961 0-1.602-.641-1.602-1.602v-9.127h-.16c-2.722 6.886-11.209 12.33-24.499 12.33-15.853 0-25.46-7.847-25.46-22.098 0-14.411 9.928-21.777 28.182-21.777h20.977c.641 0 .961-.32.961-.96v-9.768c0-14.412-4.483-20.016-21.137-20.016-10.248 0-15.853 2.242-19.855 6.085-.801.801-1.602.801-2.242.32l-1.12-.961c-.961-.8-.801-1.601-.16-2.242 4.644-4.804 12.329-7.686 23.378-7.686 18.255 0 25.94 5.765 25.94 24.5v51.4c0 .961-.641 1.602-1.602 1.602h-1.601zm-1.601-22.418v-14.411c0-.64-.32-.96-.961-.96h-20.656c-16.653 0-23.698 5.764-23.698 17.293 0 11.209 7.686 17.614 21.297 17.614 14.09 0 24.018-8.167 24.018-19.536zM367.594 119.434c-.961 0-1.602-.641-1.602-1.602v-72.696c0-.961.641-1.601 1.602-1.601h1.601c.961 0 1.602.64 1.602 1.601v11.369h.16c2.401-8.487 9.447-14.572 20.656-14.572 5.925 0 11.369 1.922 15.052 4.644.641.48.801 1.281.32 2.082l-.961 1.281c-.641.801-1.602.801-2.401.32-3.684-2.242-7.687-3.843-12.65-3.843-14.892 0-20.176 13.931-20.176 28.983v42.433c0 .961-.641 1.602-1.602 1.602h-1.601zM443.97 20.156c-.961 0-1.602-.641-1.602-1.602v-6.404c0-.961.641-1.602 1.602-1.602h3.843c.961 0 1.602.641 1.602 1.602v6.405c0 .961-.641 1.602-1.602 1.602h-3.843zm1.121 99.278c-.961 0-1.602-.641-1.602-1.602v-72.696c0-.961.641-1.601 1.602-1.601h1.601c.961 0 1.602.64 1.602 1.601v72.697c0 .961-.641 1.602-1.602 1.602h-1.601z"/></g></g></svg>